<svg xmlns="http://www.w3.org/2000/svg" viewBox="0 0 1404.68 721.56"><defs><style>.cls-1,.cls-3{fill:#071882;}.cls-2{fill:#fff;}.cls-3{font-size:300px;font-family:MyriadPro-Regular, Myriad Pro;}.cls-4{letter-spacing:0.01em;}.cls-5{letter-spacing:0em;}</style></defs><title>logosvg_nobg_1</title><g id="Livello_2" data-name="Livello 2"><g id="Livello_1-2" data-name="Livello 1"><rect class="cls-1" x="355.96" y="285.79" width="733.48" height="93.84" rx="11.34"/><rect class="cls-1" x="395.87" y="52.26" width="271.82" height="179.6" rx="19.84"/><polygon class="cls-1" points="572.05 269.96 572.05 276.79 488.99 276.79 488.99 269.24 501.57 269.24 506.61 231.85 554.79 231.85 558.74 269.96 572.05 269.96"/><path class="cls-1" d="M1043.32,75.45h-29.39V46.6a5.67,5.67,0,0,0-5.67-5.67H985.62A5.67,5.67,0,0,0,980,46.6V75.45H948.41a5.67,5.67,0,0,0-5.67,5.67v22.1a5.67,5.67,0,0,0,5.67,5.67H980v30.46a5.67,5.67,0,0,0,5.67,5.67h22.64a5.67,5.67,0,0,0,5.67-5.67V108.89h29.39a5.67,5.67,0,0,0,5.67-5.67V81.12A5.67,5.67,0,0,0,1043.32,75.45Z"/><path class="cls-1" d="M898.52,28.52,866.16,72.21h-2.53c-4.83-8.38-19.25-14.47-36.3-14.47S795.85,63.83,791,72.21h-.37L759.37,27.45c7.42-6.94,26-22.29,53.93-26.43C859.91-5.87,893.7,24.1,898.52,28.52Z"/><path class="cls-2" d="M843.43,25.05h-8.81V15.34a1.81,1.81,0,0,0-1.69-1.91h-6.78a1.81,1.81,0,0,0-1.7,1.91v9.71H815A1.82,1.82,0,0,0,813.3,27V34.4a1.81,1.81,0,0,0,1.7,1.91h9.45V46.57a1.81,1.81,0,0,0,1.7,1.91h6.78a1.81,1.81,0,0,0,1.69-1.91V36.31h8.81a1.81,1.81,0,0,0,1.69-1.91V27A1.82,1.82,0,0,0,843.43,25.05Z"/><path class="cls-1" d="M951.91,238.59a36.32,36.32,0,0,0-4.31-11.86c-1.5-2.57-5.94-10-14.3-13.49a28,28,0,0,0-11.59-1.88c-8.12,0-37.6-.42-50.6-16.14a29,29,0,0,1-4.27-7.06,5.2,5.2,0,0,1,.83-.67c1-.62,1.79-.66,5.12-1.15l.49-.07a58.17,58.17,0,0,0,24.08-9.66h0c2.92-2.29,5.87-4.35,7.63-8.4,3.94-9,.44-19.75,0-21-3.23-9.49-8.32-9.59-12.41-18.34-4.29-9.18-.28-12.5-1.61-30.74-1.21-16.58-5.8-31.44-8.63-31.28-1.46.07-1,4-4.86,8.63-3.22,3.86-8.93,7.52-14,6.47-3.46-.72-4.9-3.27-7.55-5.94-8.09-8.15-19.49-9.37-22.65-9.7-10.08-1.08-24.68,1.8-32.9,10.78-1.59,1.74-2.66,3.39-4.85,3.78-7.21,1.26-12-13.73-18.34-13-5.51.69-8.8,13.06-9.71,21-1.7,15,4.68,17.26,2.7,28.58-2.36,13.49-12.06,13.88-15.64,29.67-.54,2.38-3.29,13.07,1.62,22.65,5.63,11,19.49,17,35,16.67a37.94,37.94,0,0,1-6.11,9.35,37,37,0,0,1-4.32,4.13c-3.58,2.87-6.35,3.6-17.71,7.06-12.69,3.87-13.66,4.05-16.18,4.32-5.31.57-7.24,0-13.31,1.07a37.76,37.76,0,0,0-10.06,2.88,30.42,30.42,0,0,0-11.15,8.63c-3.75,4.82-4.83,9.85-5.75,15.82a196.53,196.53,0,0,0-2.16,33.44H953.89Z"/><path class="cls-2" d="M805.46,189.15S825,247,830.16,246.42s22.21-56.89,22.21-56.89l7.24-1,21.92,32.53H852.4s-19.95,33.27-23.46,33.27-25.07-35.41-25.07-35.41H778.79l17.72-31.13Z"/><text class="cls-3" transform="translate(0 646.56)"><tspan class="cls-4">M</tspan><tspan x="242.99" y="0">ed</tspan><tspan class="cls-5" x="562.49" y="0">Q</tspan><tspan x="770.09" y="0">ueue</tspan></text><rect class="cls-2" x="523.94" y="240.69" width="1.66" height="22.26"/><rect class="cls-2" x="530.54" y="230.38" width="1.39" height="19.97" transform="translate(771.6 -290.87) rotate(90)"/><rect class="cls-2" x="540.64" y="239.67" width="1.66" height="2.78" transform="translate(1082.94 482.12) rotate(180)"/><rect class="cls-2" x="528.25" y="238.57" width="0.97" height="14.98" transform="translate(774.8 -282.68) rotate(90)"/><rect class="cls-2" x="529.78" y="245.79" width="0.97" height="11.65" transform="translate(781.88 -278.65) rotate(90)"/><rect class="cls-2" x="521.25" y="262.96" width="6.49" height="1.39"/><path class="cls-2" d="M536.09,245.57v1a2.33,2.33,0,1,1,0,4.58v1c2.16,0,3.91-1.46,3.91-3.26S538.25,245.57,536.09,245.57Z"/><polygon class="cls-2" points="540.64 264.06 539.53 264.35 534.78 251.74 535.89 251.45 540.64 264.06"/><rect class="cls-2" x="539.53" y="262.96" width="2.77" height="1.39"/><rect class="cls-2" x="524.77" y="254.41" width="12.04" height="0.7"/><rect class="cls-2" x="525.21" y="259.26" width="12.98" height="0.7"/><rect class="cls-2" x="525.21" y="257.41" width="12.04" height="0.7"/></g></g></svg>