<svg xmlns="http://www.w3.org/2000/svg" viewBox="0 0 463 447.5"><defs><style>.cls-1,.cls-2{fill:none;stroke:#000;stroke-linejoin:round;stroke-width:32px;}.cls-2{stroke-linecap:round;}.cls-3{font-size:74px;font-family:ArialRoundedMTBold, Arial Rounded MT Bold;}.cls-4{letter-spacing:-0.02em;}</style></defs><title>Prenotazioni</title><g id="Livello_2" data-name="Livello 2"><g id="Livello_1-2" data-name="Livello 1"><path class="cls-1" d="M106.5,39.5h250c20.71,0,37.5,15.78,37.5,35.25v211.5c0,19.47-16.79,35.25-37.5,35.25h-250c-20.71,0-37.5-15.78-37.5-35.25V74.75C69,55.28,85.79,39.5,106.5,39.5Z"/><ellipse cx="262.75" cy="151.13" rx="18.75" ry="17.63"/><ellipse cx="325.25" cy="151.13" rx="18.75" ry="17.63"/><ellipse cx="262.75" cy="209.88" rx="18.75" ry="17.63"/><ellipse cx="325.25" cy="209.88" rx="18.75" ry="17.63"/><ellipse cx="137.75" cy="209.88" rx="18.75" ry="17.63"/><ellipse cx="200.25" cy="209.88" rx="18.75" ry="17.63"/><ellipse cx="137.75" cy="268.63" rx="18.75" ry="17.63"/><ellipse cx="200.25" cy="268.63" rx="18.75" ry="17.63"/><ellipse cx="262.75" cy="268.63" rx="18.75" ry="17.63"/><path class="cls-2" d="M131.5,16V39.5M331.5,16V39.5"/><path class="cls-1" d="M394,98.25H69"/><text class="cls-3" transform="translate(0 429.37)">P<tspan class="cls-4" x="49.36" y="0">r</tspan><tspan x="79.93" y="0">enotazioni</tspan></text></g></g></svg>