<svg xmlns="http://www.w3.org/2000/svg" viewBox="0 0 471.37 480.93"><defs><style>.cls-1{fill:#fff;stroke-width:22px;}.cls-1,.cls-2{stroke:#000;stroke-miterlimit:10;}.cls-2{fill:none;stroke-width:32.5px;}.cls-3{font-size:55px;font-family:ArialRoundedMTBold, Arial Rounded MT Bold;}.cls-4{letter-spacing:-0.01em;}</style></defs><title>VisualizzaCoda</title><g id="Livello_2" data-name="Livello 2"><g id="Livello_1-2" data-name="Livello 1"><path class="cls-1" d="M114,11H245a31.18,31.18,0,0,1,31.18,31.18v294a0,0,0,0,1,0,0H85.69a0,0,0,0,1,0,0V39.35A28.35,28.35,0,0,1,114,11Z"/><path class="cls-1" d="M276.17,135.23h89.46A28.35,28.35,0,0,1,394,163.58V336.17a0,0,0,0,1,0,0H276.17a0,0,0,0,1,0,0V135.23A0,0,0,0,1,276.17,135.23Z"/><ellipse cx="129.87" cy="59.46" rx="16.12" ry="14.7"/><ellipse cx="233.06" cy="59.46" rx="16.12" ry="14.7"/><ellipse cx="181.47" cy="59.46" rx="16.12" ry="14.7"/><ellipse cx="128.8" cy="111.57" rx="16.12" ry="14.7"/><ellipse cx="231.99" cy="111.57" rx="16.12" ry="14.7"/><ellipse cx="180.39" cy="111.57" rx="16.12" ry="14.7"/><ellipse cx="128.8" cy="167.85" rx="16.12" ry="14.7"/><ellipse cx="231.99" cy="167.85" rx="16.12" ry="14.7"/><ellipse cx="180.39" cy="167.85" rx="16.12" ry="14.7"/><ellipse cx="129.87" cy="224.13" rx="16.12" ry="14.7"/><ellipse cx="233.06" cy="224.13" rx="16.12" ry="14.7"/><ellipse cx="181.47" cy="224.13" rx="16.12" ry="14.7"/><ellipse cx="128.8" cy="280.41" rx="16.12" ry="14.7"/><ellipse cx="231.99" cy="280.41" rx="16.12" ry="14.7"/><ellipse cx="180.39" cy="280.41" rx="16.12" ry="14.7"/><line class="cls-2" x1="180.39" y1="280.41" x2="180.39" y2="331.58"/><ellipse cx="309.81" cy="169.94" rx="16.12" ry="14.7"/><ellipse cx="361.4" cy="169.94" rx="16.12" ry="14.7"/><ellipse cx="308.73" cy="222.05" rx="16.12" ry="14.7"/><ellipse cx="360.33" cy="222.05" rx="16.12" ry="14.7"/><ellipse cx="308.73" cy="278.33" rx="16.12" ry="14.7"/><ellipse cx="360.33" cy="278.33" rx="16.12" ry="14.7"/><text class="cls-3" transform="translate(101.92 396.39)"><tspan class="cls-4">V</tspan><tspan x="37.11" y="0">isualizza</tspan><tspan x="63.27" y="66">Coda</tspan></text></g></g></svg>